PathFileType	4	(X/Y/Z)	C:\Users\Willi\Documents\GitHub\processC3D_GUI\exampleC3Dfiles\fws_end01_R4\marker_experimental.trc
DataRate	CameraRate	NumFrames	NumMarkers	Units	OrigDataRate	OrigDataStartFrame	OrigNumFrames
2.000000e+02	2.000000e+02	12	51	m	2.000000e+02	120	318
Frame#	Time	CLAV			GLAB			LANK			LASI			LELB			LFIN			LFMH			LHEE			LKNE			LMAS			LPEL			LPSI			LSHO			LTHAD			LTHAP			LTHI			LTIAD			LTIAP			LTIB			LTOE			LVMH			LWRA			LWRB			RANK			RASI			RBAK			RELB			RFIN			RFMH			RHEE			RKNE			RMAS			RPEL			RPSI			RSHO			RTHAD			RTHAP			RTHI			RTIAD			RTIAP			RTIB			RTOE			RVMH			RWRA			RWRB			SACR			T10			T2			not_labelled_48			not_labelled_49			not_labelled_50		
		X1	Y1	Z1	X2	Y2	Z2	X3	Y3	Z3	X4	Y4	Z4	X5	Y5	Z5	X6	Y6	Z6	X7	Y7	Z7	X8	Y8	Z8	X9	Y9	Z9	X10	Y10	Z10	X11	Y11	Z11	X12	Y12	Z12	X13	Y13	Z13	X14	Y14	Z14	X15	Y15	Z15	X16	Y16	Z16	X17	Y17	Z17	X18	Y18	Z18	X19	Y19	Z19	X20	Y20	Z20	X21	Y21	Z21	X22	Y22	Z22	X23	Y23	Z23	X24	Y24	Z24	X25	Y25	Z25	X26	Y26	Z26	X27	Y27	Z27	X28	Y28	Z28	X29	Y29	Z29	X30	Y30	Z30	X31	Y31	Z31	X32	Y32	Z32	X33	Y33	Z33	X34	Y34	Z34	X35	Y35	Z35	X36	Y36	Z36	X37	Y37	Z37	X38	Y38	Z38	X39	Y39	Z39	X40	Y40	Z40	X41	Y41	Z41	X42	Y42	Z42	X43	Y43	Z43	X44	Y44	Z44	X45	Y45	Z45	X46	Y46	Z46	X47	Y47	Z47	X48	Y48	Z48	X49	Y49	Z49	X50	Y50	Z50	X51	Y51	Z51
120	4.14000	0.494	1.386	0.365	0.627	1.591	0.401	0.426	0.186	0.266	0.431	0.991	0.248	0.362	1.110	0.133	0.428	0.793	0.102	0.598	0.069	0.302	0.368	0.184	0.317	0.596	0.564	0.238	0.495	1.565	0.320	0.366	1.012	0.227	0.287	1.014	0.329	0.442	1.423	0.208	0.541	0.691	0.216	0.495	0.738	0.212	0.495	0.674	0.228	0.521	0.298	0.251	0.531	0.362	0.238	0.478	0.323	0.243	0.567	0.100	0.279	0.588	0.081	0.247	0.435	0.862	0.126	0.382	0.864	0.096	0.309	0.102	0.442	0.464	1.002	0.478	0.320	1.356	0.476	0.423	1.071	0.609	0.612	0.827	0.631	0.511	0.062	0.387	0.245	0.083	0.394	0.409	0.514	0.493	0.489	1.545	0.463	0.414	1.055	0.504	0.300	1.030	0.434	0.459	1.400	0.534	0.433	0.662	0.517	0.433	0.727	0.528	0.386	0.682	0.521	0.369	0.245	0.465	0.374	0.309	0.480	0.325	0.266	0.478	0.462	0.080	0.405	0.493	0.057	0.444	0.599	0.869	0.593	0.544	0.839	0.638	0.295	1.053	0.377	0.291	1.240	0.383	0.363	1.455	0.388	-0.000	0.011	-0.000	0.719	0.012	-0.006	-0.000	0.011	0.762
121	4.14500	0.493	1.385	0.365	0.627	1.591	0.401	0.437	0.181	0.266	0.431	0.991	0.248	0.360	1.109	0.133	0.425	0.793	0.102	0.612	0.069	0.302	0.379	0.177	0.317	0.596	0.564	0.238	0.495	1.565	0.319	0.366	1.011	0.227	0.287	1.014	0.329	0.442	1.423	0.208	0.541	0.692	0.216	0.495	0.738	0.212	0.495	0.674	0.228	0.528	0.296	0.251	0.536	0.360	0.238	0.484	0.320	0.243	0.581	0.099	0.279	0.602	0.080	0.247	0.432	0.861	0.126	0.379	0.863	0.096	0.303	0.102	0.442	0.463	1.001	0.479	0.319	1.356	0.476	0.423	1.071	0.609	0.613	0.827	0.631	0.505	0.062	0.387	0.239	0.083	0.394	0.406	0.513	0.493	0.488	1.544	0.463	0.413	1.055	0.504	0.299	1.030	0.434	0.458	1.400	0.534	0.431	0.661	0.517	0.431	0.727	0.528	0.383	0.682	0.521	0.364	0.244	0.465	0.369	0.309	0.480	0.320	0.266	0.478	0.456	0.080	0.405	0.487	0.057	0.444	0.600	0.870	0.593	0.545	0.839	0.637	0.295	1.053	0.377	0.290	1.240	0.383	0.363	1.454	0.388	-0.000	0.011	-0.000	0.719	0.012	-0.006	-0.000	0.011	0.762
122	4.15000	0.493	1.385	0.365	0.626	1.590	0.401	0.448	0.176	0.265	0.430	0.991	0.248	0.358	1.109	0.133	0.422	0.792	0.102	0.626	0.069	0.302	0.390	0.170	0.317	0.596	0.564	0.238	0.495	1.564	0.319	0.366	1.011	0.228	0.286	1.013	0.329	0.441	1.422	0.208	0.541	0.692	0.215	0.495	0.738	0.211	0.495	0.674	0.227	0.535	0.294	0.251	0.542	0.357	0.238	0.491	0.316	0.243	0.594	0.097	0.279	0.616	0.079	0.247	0.429	0.861	0.126	0.376	0.863	0.096	0.297	0.102	0.442	0.463	1.001	0.479	0.319	1.356	0.476	0.423	1.071	0.609	0.614	0.828	0.630	0.499	0.061	0.387	0.233	0.083	0.394	0.402	0.513	0.493	0.488	1.544	0.462	0.412	1.054	0.504	0.299	1.030	0.433	0.458	1.399	0.534	0.428	0.661	0.517	0.428	0.726	0.528	0.381	0.681	0.521	0.359	0.244	0.465	0.365	0.309	0.480	0.315	0.266	0.478	0.449	0.080	0.405	0.481	0.057	0.444	0.601	0.870	0.592	0.547	0.840	0.637	0.294	1.053	0.377	0.289	1.239	0.383	0.362	1.454	0.388	-0.000	0.011	-0.000	0.719	0.012	-0.006	-0.000	0.011	0.762
123	4.15500	0.493	1.384	0.365	0.626	1.590	0.400	0.459	0.171	0.265	0.430	0.991	0.249	0.357	1.108	0.133	0.418	0.791	0.102	0.640	0.069	0.302	0.401	0.164	0.316	0.596	0.564	0.238	0.494	1.564	0.319	0.365	1.011	0.228	0.285	1.013	0.329	0.441	1.421	0.208	0.541	0.692	0.215	0.495	0.738	0.211	0.494	0.674	0.227	0.543	0.291	0.250	0.547	0.355	0.237	0.498	0.312	0.242	0.607	0.096	0.279	0.630	0.079	0.247	0.427	0.860	0.126	0.373	0.862	0.096	0.291	0.103	0.442	0.462	1.000	0.479	0.318	1.356	0.476	0.423	1.070	0.609	0.616	0.829	0.629	0.493	0.061	0.387	0.227	0.083	0.394	0.399	0.512	0.493	0.488	1.544	0.462	0.411	1.054	0.504	0.298	1.029	0.433	0.458	1.399	0.534	0.425	0.660	0.517	0.426	0.726	0.528	0.378	0.681	0.521	0.353	0.244	0.465	0.360	0.308	0.480	0.310	0.266	0.478	0.443	0.080	0.405	0.475	0.057	0.444	0.602	0.871	0.591	0.548	0.840	0.636	0.293	1.052	0.377	0.289	1.239	0.383	0.362	1.454	0.387	-0.000	0.011	-0.000	0.719	0.012	-0.006	-0.000	0.011	0.762
124	4.16000	0.492	1.384	0.365	0.626	1.589	0.400	0.471	0.166	0.265	0.430	0.990	0.249	0.356	1.108	0.134	0.415	0.790	0.102	0.654	0.069	0.303	0.412	0.158	0.316	0.596	0.563	0.237	0.494	1.563	0.318	0.365	1.011	0.228	0.285	1.013	0.329	0.441	1.421	0.208	0.541	0.691	0.215	0.494	0.738	0.211	0.494	0.674	0.227	0.550	0.289	0.250	0.552	0.353	0.237	0.505	0.308	0.242	0.621	0.095	0.280	0.644	0.078	0.247	0.424	0.859	0.126	0.371	0.861	0.096	0.285	0.103	0.442	0.461	1.000	0.480	0.318	1.356	0.476	0.423	1.070	0.609	0.617	0.829	0.628	0.487	0.061	0.387	0.221	0.083	0.394	0.395	0.512	0.493	0.488	1.543	0.462	0.410	1.053	0.505	0.297	1.029	0.433	0.457	1.399	0.533	0.423	0.660	0.517	0.424	0.725	0.528	0.376	0.681	0.521	0.348	0.243	0.465	0.355	0.308	0.480	0.305	0.266	0.478	0.437	0.080	0.405	0.469	0.057	0.444	0.602	0.871	0.590	0.549	0.840	0.635	0.293	1.052	0.377	0.288	1.239	0.383	0.362	1.453	0.387	-0.000	0.011	-0.000	0.719	0.012	-0.006	-0.000	0.011	0.762
125	4.16500	0.492	1.383	0.364	0.626	1.589	0.400	0.482	0.161	0.264	0.430	0.990	0.249	0.354	1.107	0.134	0.412	0.789	0.102	0.668	0.069	0.303	0.424	0.152	0.315	0.596	0.563	0.237	0.494	1.563	0.318	0.365	1.010	0.228	0.284	1.013	0.328	0.440	1.420	0.207	0.540	0.691	0.215	0.493	0.737	0.211	0.493	0.673	0.227	0.558	0.287	0.250	0.558	0.351	0.237	0.511	0.305	0.241	0.634	0.095	0.280	0.658	0.078	0.247	0.421	0.858	0.126	0.368	0.861	0.097	0.279	0.103	0.442	0.460	0.999	0.480	0.317	1.356	0.476	0.423	1.070	0.609	0.618	0.830	0.627	0.481	0.061	0.387	0.215	0.083	0.394	0.392	0.511	0.493	0.487	1.543	0.461	0.409	1.053	0.505	0.296	1.029	0.433	0.457	1.398	0.533	0.420	0.659	0.517	0.422	0.725	0.527	0.373	0.680	0.521	0.343	0.243	0.465	0.351	0.308	0.480	0.300	0.266	0.478	0.431	0.080	0.405	0.463	0.057	0.444	0.603	0.872	0.590	0.550	0.840	0.635	0.292	1.052	0.377	0.288	1.239	0.383	0.361	1.453	0.387	-0.000	0.011	-0.000	0.719	0.012	-0.006	-0.000	0.011	0.762
126	4.17000	0.492	1.383	0.364	0.626	1.588	0.399	0.494	0.156	0.264	0.430	0.990	0.249	0.353	1.107	0.134	0.409	0.788	0.102	0.682	0.069	0.304	0.436	0.146	0.315	0.595	0.562	0.237	0.494	1.562	0.318	0.365	1.010	0.228	0.284	1.013	0.328	0.440	1.419	0.207	0.539	0.690	0.215	0.493	0.737	0.211	0.492	0.673	0.227	0.565	0.285	0.249	0.563	0.349	0.236	0.518	0.301	0.241	0.647	0.094	0.280	0.672	0.078	0.248	0.419	0.857	0.126	0.365	0.860	0.097	0.273	0.103	0.442	0.459	0.998	0.481	0.317	1.356	0.476	0.423	1.069	0.609	0.619	0.830	0.626	0.475	0.061	0.387	0.209	0.083	0.394	0.388	0.511	0.493	0.487	1.542	0.461	0.408	1.052	0.505	0.296	1.028	0.433	0.457	1.398	0.533	0.418	0.658	0.516	0.420	0.724	0.527	0.371	0.680	0.522	0.338	0.243	0.464	0.346	0.308	0.480	0.295	0.266	0.478	0.425	0.080	0.405	0.457	0.057	0.444	0.604	0.872	0.589	0.552	0.841	0.634	0.292	1.051	0.377	0.287	1.238	0.383	0.361	1.453	0.387	-0.000	0.011	-0.000	0.719	0.012	-0.006	-0.000	0.011	0.762
127	4.17500	0.491	1.382	0.364	0.626	1.588	0.399	0.506	0.152	0.263	0.430	0.989	0.249	0.352	1.106	0.134	0.406	0.788	0.102	0.696	0.070	0.305	0.447	0.140	0.314	0.594	0.561	0.237	0.494	1.561	0.317	0.365	1.010	0.228	0.284	1.012	0.328	0.440	1.419	0.207	0.538	0.690	0.215	0.492	0.736	0.210	0.491	0.672	0.227	0.572	0.283	0.249	0.568	0.346	0.236	0.525	0.297	0.240	0.661	0.094	0.281	0.686	0.078	0.249	0.416	0.856	0.126	0.362	0.860	0.097	0.267	0.103	0.442	0.458	0.998	0.481	0.316	1.355	0.476	0.423	1.069	0.609	0.620	0.831	0.625	0.469	0.061	0.387	0.202	0.083	0.394	0.385	0.510	0.493	0.487	1.542	0.461	0.407	1.052	0.505	0.295	1.028	0.433	0.457	1.398	0.533	0.415	0.658	0.516	0.418	0.723	0.527	0.369	0.680	0.522	0.333	0.243	0.464	0.341	0.307	0.480	0.290	0.266	0.478	0.419	0.080	0.405	0.451	0.057	0.444	0.605	0.873	0.588	0.553	0.841	0.634	0.291	1.051	0.377	0.287	1.238	0.383	0.361	1.452	0.387	-0.000	0.011	-0.000	0.719	0.012	-0.006	-0.000	0.011	0.762
128	4.18000	0.491	1.382	0.364	0.625	1.587	0.399	0.518	0.147	0.263	0.430	0.989	0.250	0.351	1.106	0.135	0.403	0.787	0.102	0.710	0.071	0.305	0.459	0.134	0.313	0.593	0.560	0.237	0.494	1.561	0.317	0.365	1.009	0.228	0.283	1.012	0.328	0.439	1.418	0.207	0.537	0.689	0.215	0.491	0.735	0.210	0.490	0.671	0.226	0.580	0.281	0.249	0.573	0.344	0.235	0.532	0.293	0.240	0.674	0.094	0.281	0.699	0.078	0.249	0.414	0.855	0.126	0.360	0.859	0.097	0.262	0.103	0.442	0.457	0.997	0.481	0.316	1.355	0.476	0.423	1.068	0.609	0.621	0.831	0.624	0.463	0.061	0.387	0.196	0.083	0.394	0.381	0.510	0.493	0.487	1.541	0.460	0.407	1.051	0.505	0.295	1.028	0.433	0.456	1.397	0.533	0.413	0.657	0.516	0.416	0.723	0.527	0.366	0.679	0.522	0.328	0.242	0.465	0.336	0.307	0.480	0.285	0.266	0.478	0.413	0.080	0.405	0.445	0.057	0.444	0.605	0.873	0.587	0.554	0.841	0.633	0.291	1.051	0.377	0.286	1.237	0.383	0.361	1.452	0.386	-0.000	0.011	-0.000	0.719	0.012	-0.006	-0.000	0.011	0.762
129	4.18500	0.491	1.381	0.364	0.625	1.586	0.398	0.530	0.143	0.262	0.430	0.988	0.250	0.350	1.105	0.135	0.400	0.786	0.102	0.723	0.072	0.306	0.471	0.129	0.312	0.592	0.558	0.237	0.494	1.560	0.317	0.365	1.009	0.228	0.283	1.012	0.328	0.439	1.417	0.206	0.536	0.687	0.214	0.490	0.734	0.210	0.489	0.670	0.226	0.587	0.279	0.248	0.578	0.342	0.235	0.539	0.290	0.239	0.687	0.094	0.282	0.713	0.079	0.250	0.411	0.854	0.126	0.357	0.858	0.098	0.256	0.103	0.442	0.457	0.996	0.482	0.315	1.355	0.476	0.423	1.068	0.609	0.622	0.831	0.624	0.457	0.061	0.387	0.190	0.083	0.394	0.377	0.509	0.493	0.487	1.541	0.460	0.406	1.051	0.506	0.294	1.027	0.433	0.456	1.397	0.533	0.410	0.657	0.516	0.414	0.722	0.527	0.364	0.679	0.522	0.323	0.242	0.465	0.331	0.307	0.480	0.280	0.266	0.479	0.407	0.080	0.405	0.439	0.057	0.444	0.606	0.873	0.586	0.555	0.841	0.632	0.290	1.050	0.376	0.286	1.237	0.382	0.361	1.451	0.386	-0.000	0.011	-0.000	0.719	0.012	-0.006	-0.000	0.011	0.762
130	4.19000	0.490	1.380	0.364	0.625	1.586	0.398	0.542	0.140	0.261	0.430	0.988	0.250	0.348	1.104	0.135	0.397	0.785	0.102	0.737	0.074	0.307	0.483	0.124	0.311	0.590	0.557	0.237	0.494	1.560	0.316	0.365	1.008	0.228	0.283	1.011	0.327	0.439	1.416	0.206	0.535	0.686	0.214	0.489	0.733	0.210	0.488	0.669	0.226	0.594	0.277	0.248	0.583	0.340	0.235	0.545	0.286	0.239	0.700	0.094	0.283	0.727	0.080	0.251	0.409	0.853	0.126	0.355	0.858	0.098	0.250	0.103	0.442	0.456	0.996	0.482	0.315	1.355	0.476	0.423	1.068	0.609	0.623	0.831	0.623	0.451	0.061	0.387	0.184	0.083	0.394	0.374	0.509	0.493	0.487	1.540	0.460	0.405	1.050	0.506	0.294	1.027	0.432	0.456	1.396	0.532	0.408	0.656	0.516	0.411	0.722	0.527	0.362	0.679	0.522	0.317	0.242	0.465	0.327	0.307	0.480	0.275	0.266	0.479	0.401	0.080	0.405	0.432	0.057	0.444	0.607	0.873	0.585	0.555	0.841	0.632	0.290	1.050	0.376	0.286	1.237	0.382	0.360	1.451	0.386	-0.000	0.011	-0.000	0.719	0.012	-0.006	-0.000	0.011	0.762
131	4.19500	0.490	1.380	0.363	0.625	1.585	0.398	0.554	0.136	0.261	0.430	0.987	0.250	0.347	1.104	0.136	0.394	0.784	0.102	0.750	0.075	0.308	0.495	0.119	0.310	0.589	0.555	0.237	0.493	1.559	0.316	0.365	1.008	0.228	0.283	1.011	0.327	0.439	1.416	0.206	0.533	0.685	0.214	0.487	0.731	0.210	0.486	0.668	0.226	0.601	0.275	0.247	0.588	0.338	0.234	0.552	0.283	0.239	0.713	0.095	0.284	0.741	0.081	0.252	0.406	0.852	0.126	0.352	0.857	0.098	0.244	0.103	0.442	0.455	0.995	0.482	0.314	1.354	0.476	0.423	1.067	0.609	0.624	0.831	0.622	0.445	0.061	0.387	0.178	0.084	0.394	0.370	0.508	0.493	0.487	1.540	0.459	0.404	1.050	0.506	0.293	1.027	0.432	0.456	1.396	0.532	0.405	0.655	0.516	0.409	0.721	0.527	0.359	0.678	0.522	0.312	0.242	0.465	0.322	0.306	0.481	0.270	0.266	0.479	0.394	0.080	0.405	0.426	0.057	0.444	0.607	0.874	0.585	0.556	0.841	0.631	0.290	1.050	0.376	0.286	1.236	0.382	0.360	1.450	0.386	-0.000	0.011	-0.000	0.719	0.012	-0.006	-0.000	0.011	0.762
